<?xml version="1.0" encoding="utf-8"?>
<!-- Generator: Adobe Illustrator 23.0.3, SVG Export Plug-In . SVG Version: 6.00 Build 0)  -->
<svg version="1.1" xmlns="http://www.w3.org/2000/svg" xmlns:xlink="http://www.w3.org/1999/xlink" x="0px" y="0px"
	 viewBox="0 0 496.7 574.3" style="enable-background:new 0 0 496.7 574.3;" xml:space="preserve">
<style type="text/css">
	.st0{fill:#202124;}
	.st1{fill:#FFFFFF;stroke:#202124;stroke-miterlimit:10;}
	.st2{fill:#5492ED;}
	.st3{fill:#B1CEFC;}
	.st4{fill:none;stroke:#202124;stroke-miterlimit:10;}
	.st5{fill:#FFFFFF;}
</style>
<g id="background">
	<g id="plant">
		<polygon class="st0" points="419.7,389.9 433.2,471.2 475,471.2 486.6,389.9 		"/>
		<ellipse class="st1" cx="453.2" cy="390.4" rx="33.4" ry="5.6"/>
		<g>
			<g>
				<path class="st2" d="M443.3,323.9c3.2,5.5,6.5,11.1,8.4,17.3c2.2,7.2,1.5,14.2,0.1,21.5c-1.9,10.2-4.1,20.9,1.7,30.3
					c1,1.6,3.6,0.1,2.6-1.5c-7.2-11.7-0.9-25.2,0-37.6c0.8-11.7-4.5-21.7-10.2-31.5C444.9,320.7,442.3,322.2,443.3,323.9
					L443.3,323.9z"/>
			</g>
		</g>
		<g>
			<g>
				<path class="st2" d="M453.2,384.7c0.2-11.4,8.6-19.5,14.3-28.5c5.3-8.4,6.1-17.1,5.6-26.8c-0.1-1.9-3.1-1.9-3,0
					c0.3,5.6,0.6,11.4-1.1,16.8c-1.6,5.2-4.7,9.7-7.9,14.1c-5.4,7.5-10.8,15-10.9,24.6C450.2,386.7,453.2,386.7,453.2,384.7
					L453.2,384.7z"/>
			</g>
		</g>
		<g>
			<g>
				<path class="st2" d="M427.8,344.2c-1.5,5.9-0.4,12.1,3.4,16.9c5,6.3,16.4,6.9,18.5,15.4c0.5,1.9,3.4,1.1,2.9-0.8
					c-1.5-5.8-6.4-8.5-11.4-11c-7.8-3.9-12.8-10.6-10.5-19.6C431.2,343.2,428.3,342.4,427.8,344.2L427.8,344.2z"/>
			</g>
		</g>
		<g>
			<g>
				<path class="st2" d="M455.5,310.2c2.6,5.4,2.7,11.3-0.1,16.6c-1.6,3.1-3.6,5.7-4.6,9c-0.6,1.8,2.3,2.6,2.9,0.8
					c1.7-5.3,5.6-9.2,6.6-14.8c0.7-4.6-0.1-9-2.1-13.1C457.2,307,454.6,308.5,455.5,310.2L455.5,310.2z"/>
			</g>
		</g>
		<g>
			<g>
				<path class="st2" d="M469.3,352.7c5.4-2.1,10.9-4.4,14.5-9.3c3.5-4.9,4.6-10.9,5.2-16.7c0.2-1.9-2.8-1.9-3,0
					c-0.6,5.2-1.5,10.6-4.6,14.9c-3.1,4.4-8,6.4-12.8,8.3C466.7,350.5,467.5,353.4,469.3,352.7L469.3,352.7z"/>
			</g>
		</g>
		<path class="st2" d="M421.5,343.3c-3.1-8.5-0.3-15.9,0.5-17.8c1.6,4.1,3.2,8.8,4.5,14c1.3,5.2,2.2,10.1,2.7,14.4
			C427.4,352.5,423.6,349.1,421.5,343.3z"/>
		<path class="st2" d="M434,361.9c-0.4-1.6-1.1-4.6-0.2-8.3c1.4-5.8,5.6-8.9,6.8-9.8c0.7,1.6,0.9,3.1,1,4.3
			C442,355.8,435,361.2,434,361.9z"/>
		<path class="st2" d="M449.5,372.3c-3.5,3.1-8.4,4.1-12.7,2.6c-5.3-1.9-7.2-6.8-7.5-7.5c3.8,0.5,7.9,1.3,12.3,2.5
			C444.4,370.6,447,371.5,449.5,372.3z"/>
		<path class="st2" d="M428.6,349.4c-0.5-2.3-1.2-6.9,0.2-12.3c1.6-6.2,5.1-10.1,6.8-11.8c0.5,2.4,1.4,7.8-0.8,14
			C433.1,344.4,430.3,347.7,428.6,349.4z"/>
		<path class="st2" d="M447,327.3c-1.1-0.6-6.3-3.3-8.4-9.5c-2.7-7.7,1.5-14.3,2-15c1.4,1.9,3,4.4,4.3,7.5
			C447.7,317.4,447.4,323.8,447,327.3z"/>
		<path class="st2" d="M458.1,312.6c-2.1-1.6-3.2-3.3-3.7-4.5c-3.7-7.8,2.7-16.4,3-16.8c0.9,2,1.9,4.9,2.3,8.5
			C460.2,305.4,459,310,458.1,312.6z"/>
		<path class="st2" d="M454.7,352.4c-0.3-0.9-1.8-6.7,1.7-12.3c2.7-4.3,6.8-5.8,8-6.3c0.2,1.8,0.3,4.3-0.5,7.3
			C461.9,348.1,456.2,351.5,454.7,352.4z"/>
		<path class="st2" d="M471.7,331.6c-0.9-1.3-3.3-4.8-3.3-9.8c-0.1-7.2,4.7-11.8,5.5-12.5c0.9,1.7,1.9,4.2,2.3,7.3
			C476.9,324.2,472.9,330,471.7,331.6z"/>
		<path class="st2" d="M470.5,346.5c-0.1-0.8-1.2-8.8,4.4-14.2c2.8-2.6,5.9-3.5,7.5-3.8c0.3,1.6,0.6,5.3-1.3,9.3
			C478.1,344.4,471.5,346.2,470.5,346.5z"/>
		<path class="st2" d="M452.7,377.6c0.8-1.3,3-4.4,7.1-6.2c5.5-2.4,10.5-0.9,11.8-0.5c-0.7,1.4-1.9,3.4-4,5
			C461.5,380.6,453.6,377.9,452.7,377.6z"/>
		<path class="st2" d="M476.7,347.7c0.8-1.1,4.8-5.9,11.7-6.6c3.7-0.4,6.7,0.6,8.3,1.3c-1,2-2.3,3.2-3.3,4
			C487,351.6,477.6,348.1,476.7,347.7z"/>
		<path class="st2" d="M487,330.2c-0.6-0.9-3.6-5.5-2.4-11.7c1.2-6.2,5.6-9.4,6.5-10c0.5,2.1,1.1,5.1,0.8,8.8
			C491.3,323.6,488.5,328.1,487,330.2z"/>
	</g>
	<g id="phone">
		<path class="st1" d="M73,16.7L253.2,0.5l9.2,413c0,0-191,97.4-189.3,94.9C74.8,505.9,73,16.7,73,16.7z"/>
		<path class="st2" d="M72.9,438.2c63-26.2,126-52.5,189-78.7c0.5,18.4,1,36.8,1.5,55.2c-63.7,31.7-127.4,63.5-191.2,95.2
			C72.4,486,72.7,462.1,72.9,438.2z"/>
		<circle class="st1" cx="195.7" cy="419.7" r="9.2"/>
	</g>
	<g id="books">
		<path class="st2" d="M116.5,266.3c0,0,17.9-4.1,17.9-4.1v65.7l-17.6,4.2L116.5,266.3z"/>
		<polygon class="st1" points="134.4,252.9 134.4,327.9 149.6,323.8 149.6,250.1 		"/>
		<polygon class="st1" points="150.8,259 157.4,257.8 156,321.7 150.8,323.1 		"/>
		<polygon class="st1" points="158.4,278.8 169.6,275.6 170.8,317.7 157.4,321.2 		"/>
		<polygon class="st1" points="170.8,255.4 172.5,317.7 181.3,315 179.2,253.1 		"/>
		<path class="st1" d="M179.2,238l2.1,77.1c0,0,6.5-1.8,6-2.5c-0.5-0.7-2.8-74.5-2.8-74.5H179.2z"/>
		<path class="st3" d="M186.4,259.9c0.6-0.4,10.1-3,10.1-3l2.4,51.1l-10.5,3.8L186.4,259.9z"/>
		<polygon class="st1" points="195.7,236.4 199,307.9 208.7,303.5 205.5,235.2 		"/>
		<path class="st3" d="M207.3,248.6l6.1-3c1,18.7,2,37.4,3,56c-2,0.5-4.1,1-6.1,1.5L207.3,248.6z"/>
		<path class="st1" d="M215.1,256.8l9.1-3.8c0.8,14.3,1.5,28.6,2.3,42.9c-2.9,1-5.8,2.1-8.7,3.1L215.1,256.8z"/>
		<path class="st1" d="M224.6,239.7c0.6,18.8,1.2,37.6,1.9,56.3c3-1.3,6.1-2.6,9.1-3.9c-1.2-22-2.5-44-3.7-66l-8.7,1.4L224.6,239.7z
			"/>
		<path class="st1" d="M235.3,228.9c0.1,21.1,0.2,42.1,0.3,63.2c1.9-0.9,3.9-1.8,5.8-2.7c-0.6-20.6-1.1-41.2-1.7-61.8L235.3,228.9z"
			/>
		<path class="st3" d="M241.5,240.5l11.6-5.3c0.4,16.7,0.7,33.4,1.1,50.1c-4,1.4-8,2.7-12.1,4.1C242,273.1,241.8,256.8,241.5,240.5z
			"/>
		<path class="st1" d="M117.2,180.1c0-0.1,17.1-2.7,17.1-2.7l0.4,14.4l1.3,53.3l-19.3,4.9L117.2,180.1z"/>
		<polygon class="st2" points="144.5,191.1 147.3,242.3 136,245.2 134.7,191.9 		"/>
		<path class="st1" d="M143.1,158.8c0.7,2.7,4.2,83.5,4.2,83.5l16.9-4.3l-7.6-79.2H143.1z"/>
		<path class="st3" d="M159.9,177.4c1.4,0.7,20.8-2.4,20.8-2.4l6.6,57.1l-23.1,5.8L159.9,177.4z"/>
		<polygon class="st1" points="176.9,151.8 187.3,232.2 197.7,229.4 187.3,149.9 		"/>
		<polygon class="st1" points="189.3,165.4 203,162.2 212.4,225.3 198.2,228.9 		"/>
		<polygon class="st3" points="205.5,179.9 218.6,177.6 226.7,221.2 213,224.7 		"/>
		<polygon class="st2" points="220.1,149.9 226.7,221.2 237.5,218.1 232.8,148.6 		"/>
		<polygon class="st1" points="234.5,158.8 256,152.9 256,213.8 237.5,218.1 		"/>
		<path class="st1" d="M159.9,149.9c-0.3-0.7,1.5-63,1.5-63l10.8-1.4l0.2,62.1L159.9,149.9z"/>
		<path class="st1" d="M152.4,151c0-0.6,0.5-54.8,1.1-54.9c0.5-0.1,7.3,0,7.3,0l-0.8,53.8L152.4,151z"/>
		<path class="st1" d="M136,152.9c0.2-0.7,3.1-68.7,3.1-68.7l11.9-1.3l1.3,68.1L136,152.9z"/>
		<polygon class="st2" points="199.9,142.2 199.9,102.1 210.9,100.7 212.5,139.8 		"/>
		<path class="st1" d="M192.8,143.6c-0.1-21.3-0.1-42.6-0.2-63.9c2.7-0.4,5.5-0.7,8.2-1.1c-0.3,21.2-0.6,42.4-1,63.6
			C197.5,142.7,195.1,143.1,192.8,143.6z"/>
		<polygon class="st1" points="180.7,145.9 180.7,96.1 192.6,94.6 192.8,143.6 		"/>
		<path class="st2" d="M173.3,147.2c-0.1-14.5-0.1-29.1-0.2-43.6l0,0h7.7c0,14.1,0,28.1,0,42.2C178.3,146.3,175.8,146.8,173.3,147.2
			z"/>
		<polygon class="st1" points="244.3,133.5 244.3,78.4 254.9,76.7 256,131.4 		"/>
		<polygon class="st1" points="239.8,133.9 239.8,85.7 244.3,85.6 244.3,133.5 		"/>
		<polygon class="st1" points="225.8,137.2 225.8,94.6 239.8,92.7 239.8,133.9 		"/>
		<path class="st3" d="M209.7,85.1c5-0.4,9.9-0.9,14.9-1.3v54.3c-4.8,0.9-9.5,1.8-14.3,2.7C210.1,122.2,209.9,103.6,209.7,85.1z"/>
		<polygon class="st1" points="126.4,84.2 126.4,19.7 134.4,19.7 134.8,82.9 		"/>
		<polygon class="st1" points="118.6,29.2 126.4,29.2 125.2,84.4 117.5,85.6 		"/>
		<path class="st2" d="M134.8,82.9c-0.9-1.3,0-49.9,0-49.9h8.5l1.2,48.4"/>
		<path class="st2" d="M235.1,67.5c-0.2-18.8-0.4-37.6-0.7-56.4c6.1-0.5,12.3-0.9,18.4-1.4c0.4,18.3,0.9,36.6,1.3,54.9
			C247.9,65.5,241.5,66.5,235.1,67.5z"/>
		<path class="st1" d="M226.7,67.8c-0.1-17.2-0.1-34.4-0.2-51.6c2.7-0.4,5.4-0.8,8.1-1.2c0.2,17.3,0.4,34.7,0.6,52
			C232.3,67.2,229.5,67.5,226.7,67.8z"/>
		<polygon class="st1" points="209.6,71.4 211,8.3 225.8,6.6 225.8,68.9 		"/>
		<path class="st1" d="M202.4,72.5c0.2-18.9,0.3-37.7,0.5-56.6c2.7-0.4,5.3-0.7,8-1.1c-0.4,18.9-0.8,37.7-1.3,56.6
			C207.2,71.8,204.8,72.1,202.4,72.5z"/>
		<polygon class="st3" points="192.6,9.7 192.6,74 202.4,72.5 202.7,9.7 		"/>
		<path class="st1" d="M175,76.7c0.1,0,0-64.2,0-64.2l17.6-1.2V74L175,76.7z"/>
		<path class="st1" d="M164.2,78.4c0.1,0,2.1-60.7,2.1-60.7h8.8c0,19.7,0,39.3,0,59C171.4,77.3,167.8,77.8,164.2,78.4z"/>
		<path class="st1" d="M156,79.6V41.8c3.1,0.1,6.3,0.2,9.4,0.3c-0.4,12.1-0.8,24.2-1.3,36.3L156,79.6z"/>
		<path class="st3" d="M143.3,81.6c-0.1-1.8,0-63.9,0-63.9c4-0.6,7.9-1.2,11.9-1.8c0.3,21.2,0.6,42.5,0.8,63.7
			C151.8,80.3,147.5,80.9,143.3,81.6z"/>
		<line class="st4" x1="117.5" y1="85.6" x2="254.6" y2="64.5"/>
		<line class="st4" x1="118.5" y1="157.8" x2="256" y2="131.4"/>
		<line class="st4" x1="116.7" y1="250.1" x2="257.9" y2="214.1"/>
	</g>
	<g id="page">
		<path class="st1" d="M0.5,16.3C6,24.7,14.5,34.5,25,34.7C39.9,35,45.7,15.8,64.5,7.6c11.1-4.9,28-6.7,54.3,5.1
			c-1.5,162.1-2.9,324.3-4.4,486.4c-9.2,1.2-21.9,3.9-35.1,11.2c-25.9,14.2-31.5,33.6-44.7,33.5c-8.4-0.1-19.8-8-33.2-42
			C1.1,339.9,0.8,178.1,0.5,16.3z"/>
		<g>
			<g>
				<path class="st0" d="M16.4,43.7c-0.7,1.3-1.3,2.7-2,4c-0.2,0.4,0.4,0.8,0.6,0.4c0.7-1.3,1.3-2.7,2-4
					C17.2,43.6,16.6,43.3,16.4,43.7L16.4,43.7z"/>
			</g>
		</g>
		<g>
			<g>
				<path class="st0" d="M20.4,46.3c-1.1,1.2-1.8,2.6-2,4.2c-0.1,0.5,0.7,0.7,0.7,0.2c0.2-1.5,0.8-2.8,1.9-3.9
					C21.3,46.5,20.8,45.9,20.4,46.3L20.4,46.3z"/>
			</g>
		</g>
		<g>
			<g>
				<path class="st0" d="M29.4,46.7c18.4-2.6,28.8-25.4,48.5-23c0.5,0.1,0.5-0.7,0-0.8c-19.8-2.4-30.3,20.4-48.7,23
					C28.7,46,28.9,46.7,29.4,46.7L29.4,46.7z"/>
			</g>
		</g>
		<g>
			<g>
				<path class="st0" d="M82,18c1.3-0.9,2.7-1.8,4-2.7c0.4-0.3,0-0.9-0.4-0.6c-1.3,0.9-2.7,1.8-4,2.7C81.2,17.7,81.6,18.3,82,18
					L82,18z"/>
			</g>
		</g>
		<g>
			<g>
				<path class="st0" d="M84.6,20c1.8-1.1,3.6-2.2,5.4-3.4c0.4-0.3,0-0.9-0.4-0.6c-1.8,1.1-3.6,2.2-5.4,3.4
					C83.9,19.6,84.2,20.3,84.6,20L84.6,20z"/>
			</g>
		</g>
		<g>
			<g>
				<path class="st0" d="M8.2,74.1c13.6,8.1,28.3-5.9,39-12.9c16.1-10.7,35.2-20.3,54.8-13.5c0.5,0.2,0.7-0.6,0.2-0.7
					c-15.4-5.3-31.4-0.5-45.1,7.2c-7.6,4.3-14.6,9.4-21.8,14.2c-7.9,5.2-17.5,10.6-26.7,5.1C8.2,73.2,7.8,73.8,8.2,74.1L8.2,74.1z"
					/>
			</g>
		</g>
		<g>
			<g>
				<path class="st0" d="M12,90.5c12.2,4.7,25,1,35.5-5.9C60,76.4,69.2,63.1,85.8,65.2c0.5,0.1,0.5-0.7,0-0.8
					C72.7,62.8,64.5,70.2,55,78c-11.9,9.8-27.3,17.8-42.8,11.7C11.8,89.6,11.6,90.3,12,90.5L12,90.5z"/>
			</g>
		</g>
		<g>
			<g>
				<path class="st0" d="M11.7,107.3c33.8,19.1,58.8-40.3,92.3-21.8c0.4,0.2,0.8-0.4,0.4-0.6c-33.8-18.7-58.8,40.8-92.3,21.8
					C11.7,106.4,11.3,107,11.7,107.3L11.7,107.3z"/>
			</g>
		</g>
		<g>
			<g>
				<path class="st0" d="M11.7,141.3c9.7,8,22.9,5.9,33.4,0.5c15-7.9,28.1-22.5,46.6-20.4c0.5,0.1,0.5-0.7,0-0.8
					c-14.1-1.6-25.7,6.8-36.8,14.3c-12.1,8.2-29.3,17-42.6,5.9C11.8,140.5,11.3,141,11.7,141.3L11.7,141.3z"/>
			</g>
		</g>
		<g>
			<g>
				<path class="st0" d="M16.6,163.8c25.2,10.1,44.5-19.5,68.8-19.3c0.5,0,0.5-0.7,0-0.8C61,143.5,41.8,173.1,16.8,163
					C16.3,162.9,16.2,163.6,16.6,163.8L16.6,163.8z"/>
			</g>
		</g>
		<g>
			<g>
				<path class="st0" d="M8.8,201c5.4,3.8,10.8,7.4,17.6,7.6c6.4,0.2,12.6-2.2,18.1-5.4c6.8-4,12.6-9.5,19.3-13.8
					c7.8-5,16.4-8.1,25.6-9.3c0.5-0.1,0.5-0.8,0-0.8c-14.4,1.9-25.3,8.6-36.6,17.2c-6,4.6-12.4,9-20,10.7c-9.2,2-16.3-1.7-23.6-6.9
					C8.8,200.1,8.4,200.7,8.8,201L8.8,201z"/>
			</g>
		</g>
		<g>
			<g>
				<path class="st0" d="M33.5,233.9c12,2.1,20.4-6.9,29.4-13.1c11.5-8,25.5-11.6,39.5-10.7c0.5,0,0.5-0.7,0-0.8
					c-11.3-0.7-22.5,1.4-32.7,6.5c-11.6,5.9-21.7,19.9-36,17.3C33.2,233.1,33,233.8,33.5,233.9L33.5,233.9z"/>
			</g>
		</g>
		<g>
			<g>
				<path class="st0" d="M32.7,259.3c12.4,0.9,22.4-6.4,32.1-13.1c5.6-3.9,11.3-7.5,17.8-9.7c7.4-2.4,15.2-3.2,22.9-3.9
					c0.5,0,0.5-0.8,0-0.8c-12.6,1.3-24.7,3.1-35.6,9.9c-11.6,7.3-22.5,17.9-37.3,16.8C32.2,258.5,32.2,259.2,32.7,259.3L32.7,259.3z
					"/>
			</g>
		</g>
		<g>
			<g>
				<path class="st0" d="M23.1,277.6c12.6,5.5,25.6,0.6,36.5-6.5c6.8-4.5,12.9-9.8,20.6-12.8c7.7-2.9,15.9-4,24.1-5.1
					c0.5-0.1,0.5-0.8,0-0.8c-13.1,1.7-25.5,4-36.5,11.8c-12.8,9.2-27.9,19.7-44.2,12.6C23,276.8,22.7,277.4,23.1,277.6L23.1,277.6z"
					/>
			</g>
		</g>
		<g>
			<g>
				<path class="st0" d="M13.9,325.1c9.8,9.5,24.6,6.5,35.5,0.6c7.6-4.1,14.4-9.6,22.2-13.4c9.6-4.8,20.3-6.1,30.8-7.3
					c0.5-0.1,0.5-0.8,0-0.8c-7.7,0.9-15.6,1.8-23,4.1c-7.4,2.3-13.9,6.4-20.4,10.6c-12.5,8.1-31.3,18.5-44.6,5.7
					C14.1,324.3,13.6,324.8,13.9,325.1L13.9,325.1z"/>
			</g>
		</g>
		<g>
			<g>
				<path class="st0" d="M26.1,302.9c7.9,6.3,20.4,0.1,27.9-4c6.5-3.6,12.1-8.3,19.2-10.8c7.1-2.4,14.7-3.2,22.1-4
					c0.5,0,0.5-0.8,0-0.8c-11,1.1-22,2.5-31.6,8.5c-4.9,3-9.5,6.4-14.8,8.7c-6.5,2.9-15.9,6.8-22.3,1.8
					C26.2,302.1,25.7,302.6,26.1,302.9L26.1,302.9z"/>
			</g>
		</g>
		<g>
			<g>
				<path class="st0" d="M11.1,397.1c12.3,9,26.7,7.6,39.2-0.1c6.6-4.1,12.7-9.1,19.6-12.7c9.3-4.8,19.7-6.2,29.9-7.4
					c0.5-0.1,0.5-0.8,0-0.8c-7.8,1-15.7,1.9-23.1,4.4c-7,2.4-13,6.4-19,10.6c-6.3,4.4-12.7,8.9-20.2,10.7c-9.1,2.3-18.5,0-26-5.5
					C11.1,396.2,10.8,396.8,11.1,397.1L11.1,397.1z"/>
			</g>
		</g>
		<g>
			<g>
				<path class="st0" d="M18.5,373.5c10.3,6.9,22.8,5.1,33.4-0.1c6.4-3.1,11.9-7.5,18.2-10.8c8.1-4.2,17.1-5.3,26-6.2
					c0.5-0.1,0.5-0.8,0-0.8c-6.3,0.7-12.7,1.4-18.8,3.3c-6.1,1.9-11.3,5.3-16.7,8.7c-12.4,7.8-28.2,14.4-41.8,5.3
					C18.5,372.5,18.1,373.2,18.5,373.5L18.5,373.5z"/>
			</g>
		</g>
	</g>
</g>
<g id="character">
	<g id="leg_right">
		<path class="st2" d="M388.7,531.2c-22.8,14.9-33.5,23.6-32.2,26.2c1.5,2.9,18.6-2.1,51.4-15.2c-2.4-4.4-4.9-8.9-7.3-13.3
			C396.6,529.7,392.6,530.5,388.7,531.2z"/>
		<g>
			<g>
				<path class="st5" d="M387,532.6c-1.2-1-2.6-1.7-4.2-1.2c-1.2,0.4-2.2,1.5-2,2.8c0.1,1.1,0.9,2.2,2.1,2.2
					c1.6,0.1,2.6-1.4,3.2-2.6c-0.2-0.1-0.5-0.1-0.7-0.2c0.2,1.5,0.4,3.4,1.8,4.3c0.9,0.7,2.4,0.9,3.3,0.1c1.1-1,0.7-2.6-0.1-3.6
					c-1-1.3-2.5-1.8-4.1-1.6c-0.5,0-0.5,0.8,0,0.8c0.8-0.1,1.6,0,2.3,0.4c0.7,0.4,3.8,3.4,0.4,3.9c-2.2,0.3-2.7-2.7-2.9-4.2
					c0-0.3-0.5-0.5-0.7-0.2c-0.3,0.5-0.6,1.2-1.1,1.6c-1.4,1.2-3.3,0.1-2.8-1.6c0.3-1,1.6-1.6,2.5-1.5c0.9,0,1.7,0.6,2.4,1.2
					C386.9,533.4,387.4,532.9,387,532.6L387,532.6z"/>
			</g>
		</g>
		<g>
			<g>
				<path class="st5" d="M373.1,541c1.6-0.3,3.1,0,4.3,1c0.4,0.3,0.8-0.4,0.4-0.6c-1.4-1.1-3.2-1.4-4.9-1.1
					C372.4,540.4,372.6,541.1,373.1,541L373.1,541z"/>
			</g>
		</g>
		<g>
			<g>
				<path class="st5" d="M375.8,538.6c1.3-0.3,2.7,0.3,3.4,1.4c0.2,0.4,0.9,0,0.6-0.4c-0.9-1.5-2.6-2.2-4.2-1.8
					C375.1,537.9,375.3,538.7,375.8,538.6L375.8,538.6z"/>
			</g>
		</g>
		<g>
			<g>
				<path class="st5" d="M378.3,536.9c1.5,0.3,2.7,1.3,3.3,2.7c0.2,0.4,0.9,0.2,0.7-0.2c-0.7-1.6-2.1-2.9-3.8-3.3
					C378,536.1,377.8,536.8,378.3,536.9L378.3,536.9z"/>
			</g>
		</g>
		<g>
			<g>
				<path class="st5" d="M370.6,543.1c1.4-0.4,2.9,0,4,1c0.3,0.3,0.9-0.2,0.5-0.5c-1.3-1.2-3-1.7-4.7-1.2
					C369.9,542.5,370.1,543.3,370.6,543.1L370.6,543.1z"/>
			</g>
		</g>
		<g>
			<g>
				<path class="st5" d="M376.9,551.6c9.6-4.1,20.1-5.9,29-11.6c0.4-0.3,0-0.9-0.4-0.6c-8.9,5.6-19.3,7.4-28.8,11.5
					C376.3,551.1,376.5,551.8,376.9,551.6L376.9,551.6z"/>
			</g>
		</g>
		<path class="st5" d="M350.9,275.6c1.9,10.3,7.8,41.3,9.7,51.3c16.1,85.1,21.6,114.7,30.3,156.9c4.1,19.8,7.5,35.7,9.6,45.2
			c-0.6,0.7-1.8,2.2-4,3c-3.9,1.5-7.4-0.5-7.9-0.8c-10.8-24-21.5-48.4-32.1-73.3c-18.5-43.2-35.8-85.7-52.2-127.5
			c-1.1-2.5-7.9-18.2-0.5-33.7C311.5,281,330.7,271.8,350.9,275.6z"/>
		<g>
			<g>
				<path class="st0" d="M351.2,277.5c15.1,82.9,31.1,165.6,47.9,248.1c0.1,0.5,0.8,0.3,0.7-0.2C383,442.9,367,360.1,351.9,277.3
					C351.8,276.8,351.1,277,351.2,277.5L351.2,277.5z"/>
			</g>
		</g>
		<g>
			<g>
				<path class="st0" d="M307.4,339.8c25.6,64.5,52.5,128.4,80.9,191.6c0.2,0.4,0.8,0.1,0.6-0.4c-28.3-63.2-55.3-127.1-80.8-191.5
					C308,339.1,307.2,339.3,307.4,339.8L307.4,339.8z"/>
			</g>
		</g>
		<g>
			<g>
				<path class="st0" d="M389.9,532.7c4,1.2,8.3-0.2,11-3.4c0.3-0.4-0.2-0.9-0.5-0.5c-2.5,3.1-6.4,4.4-10.2,3.2
					C389.6,531.8,389.4,532.5,389.9,532.7L389.9,532.7z"/>
			</g>
		</g>
	</g>
	<g id="leg_left">
		<path class="st2" d="M320.6,550.2c-25.8,11.9-38.2,19.4-37.2,22.5c1.1,3.5,19,1.4,53.6-6.1c-0.9-5.8-1.8-11.6-2.7-17.5
			C329.7,549.5,325.1,549.9,320.6,550.2z"/>
		<g>
			<g>
				<path class="st5" d="M317.3,553c-0.5-2.4-2-4.8-4.4-5.6c-1.5-0.5-2.8,0-2.6,1.7c0.2,1.9,1.9,5.2,3.9,5.9
					c1.7,0.6,3.2-0.5,2.9-2.3c-0.2,0.1-0.5,0.1-0.7,0.2c0.4,1.4,4.1,10.5,6.6,7.1c0.8-1.2-0.2-3.1-0.9-4c-1.2-1.6-2.9-2.6-4.9-3
					c-0.5-0.1-0.7,0.6-0.2,0.7c1.4,0.3,2.5,0.8,3.6,1.7c0.5,0.5,0.9,1,1.3,1.6c0.9,1,0.8,1.5-0.5,1.6c-0.9,0.8-1.6,0.5-1.9-0.8
					c-0.3-0.4-0.6-0.9-0.8-1.4c-0.6-1.2-1.1-2.4-1.5-3.6c-0.1-0.5-0.8-0.3-0.7,0.2c-1.7,1.3-2.9,1.2-3.6-0.3
					c-0.1-0.2-0.3-0.4-0.4-0.6c-0.4-0.6-0.7-1.2-0.9-1.9c-0.5-0.7-0.2-1.1,0.8-1.2c1.5-0.8,2-0.1,3.1,1.2c0.7,0.9,1.1,1.9,1.4,3.1
					C316.7,553.6,317.4,553.4,317.3,553L317.3,553z"/>
			</g>
		</g>
		<g>
			<g>
				<path class="st5" d="M301.6,559.7c1.1-0.1,2.1,0.5,2.7,1.5c0.2,0.4,0.9,0.1,0.6-0.4c-0.6-1.2-1.9-2-3.3-1.9
					C301.1,559,301.1,559.8,301.6,559.7L301.6,559.7z"/>
			</g>
		</g>
		<g>
			<g>
				<path class="st5" d="M304.8,558.1c1-0.2,2.1,0.4,2.5,1.4c0.2,0.4,0.9,0.2,0.7-0.2c-0.6-1.4-2-2.2-3.4-1.9
					C304.1,557.4,304.3,558.1,304.8,558.1L304.8,558.1z"/>
			</g>
		</g>
		<g>
			<g>
				<path class="st5" d="M307.7,555.9c1.2,0,2.3,0.7,2.7,1.8c0.2,0.4,0.9,0.3,0.7-0.2c-0.6-1.4-1.9-2.4-3.4-2.4
					C307.2,555.2,307.2,555.9,307.7,555.9L307.7,555.9z"/>
			</g>
		</g>
		<g>
			<g>
				<path class="st5" d="M309.8,554.7c1.4,0.2,2.5,1.1,3,2.4c0.2,0.4,0.8,0.1,0.6-0.4c-0.6-1.5-2.1-2.5-3.7-2.7
					C309.4,553.9,309.4,554.7,309.8,554.7L309.8,554.7z"/>
			</g>
		</g>
		<g>
			<g>
				<path class="st5" d="M294.5,572.9c13.6-2.3,27.1-4.7,40.6-7.6c0.5-0.1,0.3-0.8-0.2-0.7c-13.4,3-27,5.3-40.6,7.6
					C293.8,572.3,294,573,294.5,572.9L294.5,572.9z"/>
			</g>
		</g>
		<path class="st5" d="M276.3,301.8c14.7,83.4,29.5,166.9,44.2,250.3c0.6,0.5,3.3,2.8,7.4,2.7c3.9-0.1,6.4-2.2,7-2.8
			c0-14.8,0.2-29.7,0.6-44.8c1.7-64.5,6.5-125.9,13.6-183.9c0.5-6.1,0.5-15.4-2.3-26.2c-2.2-8.6-4.8-18.4-10.6-22.5
			C325.5,267,300.7,277.7,276.3,301.8z"/>
		<g>
			<g>
				<path class="st0" d="M276,301.9c14.8,82.8,29.5,165.6,44.3,248.4c0.1,0.5,0.8,0.3,0.7-0.2c-14.8-82.8-29.5-165.6-44.3-248.4
					C276.6,301.3,275.9,301.5,276,301.9L276,301.9z"/>
			</g>
		</g>
		<g>
			<g>
				<path class="st0" d="M348,327.9c-7.3,73.5-12,147.3-14.1,221.2c0,0.5,0.7,0.5,0.8,0c2.1-73.9,6.8-147.6,14.1-221.2
					C348.8,327.5,348,327.5,348,327.9L348,327.9z"/>
			</g>
		</g>
		<g>
			<g>
				<path class="st0" d="M320.4,552.5c4.6,2.4,11,4.8,14.9-0.1c0.3-0.4-0.2-0.9-0.5-0.5c-3.7,4.6-9.7,2.3-14,0
					C320.3,551.6,320,552.3,320.4,552.5L320.4,552.5z"/>
			</g>
		</g>
	</g>
	<g id="hand_right">
		<path class="st5" d="M389.7,295.2c-0.9,0.8-2.2,2.1-3.4,3.9c-1.8,2.7-1.5,3.7-3.7,9.7c-1.7,4.5-2.6,6.2-1.7,8.1
			c0.1,0.2,0.8,1.7,2,1.8c1.2,0.1,2.5-1,3.2-2.9c0.8,1.5,1.6,3.3,2.3,5.4c1.4,4.3,1.7,8.1,1.7,10.9c1.3,0.7,3.4,1.6,6.3,1.8
			c2.4,0.2,4.4-0.1,5.7-0.5c0.3-1.1,0.6-2.6,0.9-4.3c0.4-2.4,0.8-6.2,0.7-11c-0.2-4.7-0.9-8.1-1.7-11.8c-1.4-6.6-2.2-9.9-4.5-11.3
			C394.7,293.6,391.5,294.5,389.7,295.2z"/>
		<path class="st5" d="M389.3,116.3c7.2,18.9,10.9,35.1,12.9,46.9c1.9,11,2.7,19.9,3.1,24.5c0.5,5.9,1.4,19.1,0.8,38.8
			c-0.9,26.9-4.3,51.8-7.5,70.5c-0.7,0.6-2.1,1.5-4,1.8c-4,0.7-7.1-1.6-7.6-2c-0.5-3.1-1.3-7.5-2.4-12.7c-0.9-4-3.7-17-10.3-36.3
			c-3.9-11.4-9.3-25.9-17-42.6c-3.8-6.5-8-16.2-8.2-28.1C348.4,139.6,387.6,117.3,389.3,116.3z"/>
		<g>
			<g>
				<path class="st0" d="M390.1,120.3c21.6,56.1,17.4,117.2,8.4,175.5c-0.1,0.5,0.6,0.7,0.7,0.2c9-58.4,13.2-119.6-8.4-175.9
					C390.7,119.7,390,119.8,390.1,120.3L390.1,120.3z"/>
			</g>
		</g>
		<g>
			<g>
				<path class="st0" d="M358.9,207.8c12,28.6,21.4,58.1,28.1,88.4c0.1,0.5,0.8,0.3,0.7-0.2c-6.6-30.3-16-59.9-28.1-88.4
					C359.4,207.2,358.7,207.4,358.9,207.8L358.9,207.8z"/>
			</g>
		</g>
		<g>
			<g>
				<path class="st0" d="M386.7,297.2c3.5,2.9,8.5,3,12.1,0.2c0.4-0.3-0.2-0.8-0.5-0.5c-3.3,2.5-7.9,2.5-11-0.2
					C386.9,296.3,386.4,296.9,386.7,297.2L386.7,297.2z"/>
			</g>
		</g>
		<g>
			<g>
				<path class="st0" d="M398.6,298.2c4.9,11.9,5.8,24.6,2.5,37c-0.1,0.5,0.6,0.7,0.7,0.2c3.3-12.5,2.5-25.4-2.5-37.4
					C399.1,297.6,398.4,297.8,398.6,298.2L398.6,298.2z"/>
			</g>
		</g>
		<g>
			<g>
				<path class="st0" d="M385.9,298.9c-2.4,5.4-4.3,11-5.7,16.7c-0.1,0.5,0.6,0.7,0.7,0.2c1.4-5.7,3.3-11.2,5.7-16.6
					C386.7,298.8,386.1,298.5,385.9,298.9L385.9,298.9z"/>
			</g>
		</g>
		<g>
			<g>
				<path class="st0" d="M381.3,318.3c0.5,1.1,1.8,1.3,2.8,0.9c1.3-0.5,1.8-2,2.2-3.2c0.2-0.5-0.6-0.7-0.7-0.2
					c-0.3,0.9-0.6,1.8-1.3,2.4c-0.7,0.6-1.9,0.6-2.3-0.3C381.8,317.5,381.2,317.9,381.3,318.3L381.3,318.3z"/>
			</g>
		</g>
		<g>
			<g>
				<path class="st0" d="M385.5,315.4c2.6,5.4,4,11.1,4,17.1c0,0.5,0.8,0.5,0.8,0c-0.1-6.1-1.5-12-4.1-17.5
					C385.9,314.6,385.3,314.9,385.5,315.4L385.5,315.4z"/>
			</g>
		</g>
		<g>
			<g>
				<path class="st0" d="M390.1,317c2.3,4.8,3,9.9,2.1,15.1c-0.1,0.5,0.6,0.7,0.7,0.2c1-5.4,0.3-10.7-2.2-15.7
					C390.5,316.2,389.9,316.6,390.1,317L390.1,317z"/>
			</g>
		</g>
		<g>
			<g>
				<path class="st0" d="M393.9,317.5c1.9,4.5,2.5,9.2,1.7,14c-0.1,0.5,0.6,0.7,0.7,0.2c0.8-5,0.2-9.9-1.8-14.6
					C394.4,316.7,393.7,317.1,393.9,317.5L393.9,317.5z"/>
			</g>
		</g>
		<g>
			<g>
				<path class="st0" d="M398.7,317.4c1,4.7,1.1,9.4,0.3,14.1c-0.1,0.5,0.6,0.7,0.7,0.2c0.8-4.9,0.7-9.7-0.3-14.5
					C399.4,316.8,398.6,317,398.7,317.4L398.7,317.4z"/>
			</g>
		</g>
	</g>
	<g id="torso">
		<path class="st5" d="M249.1,142.5c2.6-1.6,6.4-3.7,11-6c3.2-1.6,12.8-6.2,27.7-10.7c26.1-7.9,49.4-9.6,52-9.8
			c19-1.3,35.6-0.1,49,1.9c1.2,3,2.7,7.5,3.5,13.1c1,6.8,0.5,12.2-0.6,21c-1.6,12.6-2.4,18.8-4.3,27.3c-3.9,18-8.8,31.5-12,40.2
			c-3.6,9.8-7.9,19.5-16.4,38.9c-3.8,8.6-7,15.7-9.2,20.5c-1.8,2.8-4.5,6.7-8.5,10.6c-9.8,9.8-20.4,13.6-24.3,14.8
			c-9.7,3.1-17.7,2.9-21.1,2.7c-9.2-0.5-16.4-3.2-20.7-5.1c-2.7-8.3-5.9-18.7-9.1-30.7c-2.4-8.8-6.6-25.7-10.5-47.7
			c-3-17-5.6-32-6.6-52.4C248.7,159.2,248.9,149.4,249.1,142.5z"/>
		<g>
			<g>
				<path class="st0" d="M250.7,141.6c42.3-22.1,90.9-30.3,138.1-23.4c0.5,0.1,0.7-0.7,0.2-0.7c-47.4-7-96.2,1.3-138.7,23.5
					C249.9,141.2,250.2,141.8,250.7,141.6L250.7,141.6z"/>
			</g>
		</g>
		<g>
			<g>
				<path class="st0" d="M392,130.9c2.4,50.7-19.9,99.9-41.4,144.5c-0.2,0.4,0.4,0.8,0.6,0.4c21.6-44.7,43.9-94,41.5-144.8
					C392.7,130.4,392,130.4,392,130.9L392,130.9z"/>
			</g>
		</g>
		<g>
			<g>
				<path class="st0" d="M248.8,171c3.5,44.5,12.3,88.5,26.3,130.9c0.1,0.5,0.9,0.3,0.7-0.2c-13.9-42.4-22.7-86.2-26.2-130.7
					C249.5,170.6,248.8,170.6,248.8,171L248.8,171z"/>
			</g>
		</g>
		<g>
			<g>
				<path class="st0" d="M275.7,302.7c27.4,11.1,58.7,1.1,74.6-23.8c0.3-0.4-0.4-0.8-0.6-0.4C333.9,303.2,303,313,275.9,302
					C275.5,301.8,275.3,302.6,275.7,302.7L275.7,302.7z"/>
			</g>
		</g>
	</g>
	<g id="hand_left">
		<path class="st5" d="M156,166.8c-0.2-2.3-0.4-4.6-0.6-6.9c-0.9-1.3-2.1-2.9-3.6-4.8c-0.6-0.8-2.4-3-7.3-8
			c-5.8-5.9-7.1-6.7-8.2-6.4c-0.9,0.3-1.5,1.4-1.6,2.5c-0.1,1.7,1.4,2.8,1.5,2.9c-4.3,0-8-0.1-11-0.3c-7.7-0.5-13.4-1.5-15.2-1.9
			c-0.9-0.2-1.6-0.3-2.2-0.4c0.2,1.9,0.7,5.4,2.9,9.1c1.6,2.7,3.5,4.5,4.9,5.6c0.7,1,2,2.4,3.8,3.7c1,0.7,4.5,2.9,9.1,3
			c3.5,0,4.1-1.2,7.1-0.6c1,0.2,2.9,0.7,4.6,2.4c1.9,1.9,2.3,4.3,2.3,5.1c1.6,1.8,3.2,2.2,3.8,2.3C150,174.5,154.1,171.7,156,166.8z
			"/>
		<path class="st5" d="M250.5,141.3c-0.4,0.4-0.9,0.8-1.3,1.2c-2.6,3.5-5.2,7.1-7.9,10.6c-12.7,16.8-25.6,32.5-38.5,47.1
			c-8.8-6.6-17.8-13.9-27.1-21.9c-7.2-6.2-13.9-12.4-20.2-18.4c-2.3,0.4-4,1.1-5.1,1.7c-1.3,0.7-4.5,2.6-6.8,6.5
			c-0.9,1.6-1.4,3-1.7,4.1c2.3,4.3,5.3,9.9,9,16.3c6.9,12.1,12.5,21.1,15.1,25.1c1.2,1.9,2.6,4.1,4.6,7.1c4.4,6.7,5.1,7.3,11.2,16.2
			c4.8,6.9,6.2,9.2,9.8,12.2c3.5,3,5.8,3.8,7.8,4c3.8,0.3,6.7-1.6,8.8-2.8c5.8-3.6,12.3-6,18.1-9.6c21.9-13.7,20.6-12.8,22.8-14.2
			c5.2-3.4,5.8-4,20.3-14.1c20.4-14.3,21.3-14.7,22.1-16.5C297.4,182.2,269.6,156.8,250.5,141.3z"/>
		<g>
			<g>
				<path class="st0" d="M248.8,142.3c-14.6,20-30.2,39.2-46.7,57.6c-0.3,0.4,0.2,0.9,0.5,0.5c16.6-18.5,32.2-37.8,46.8-57.8
					C249.7,142.3,249.1,141.9,248.8,142.3L248.8,142.3z"/>
			</g>
		</g>
		<g>
			<g>
				<path class="st0" d="M155.4,160.2c14.9,14.4,30.6,27.9,47.1,40.4c0.4,0.3,0.8-0.4,0.4-0.6c-16.5-12.5-32.1-25.9-47-40.2
					C155.6,159.3,155.1,159.9,155.4,160.2L155.4,160.2z"/>
			</g>
		</g>
		<g>
			<g>
				<path class="st0" d="M155.3,159.5c-6.7,1.2-12,6-13.9,12.5c-0.1,0.5,0.6,0.7,0.7,0.2c1.8-6.3,7-10.9,13.4-12
					C156,160.1,155.8,159.4,155.3,159.5L155.3,159.5z"/>
			</g>
		</g>
		<g>
			<g>
				<path class="st0" d="M142.8,175.2c8.9,15.7,17.9,31.3,27.8,46.4c4.8,7.3,9.8,14.4,15.1,21.2c3.2,4.2,7,9.8,12.8,10.5
					c6.3,0.7,14.2-5,19.4-7.8c7.5-4,14.9-8.4,22.1-13c15-9.5,29.4-20,43.8-30.4c0.4-0.3,0-0.9-0.4-0.6
					c-12.9,9.4-25.8,18.7-39.1,27.4c-6.7,4.3-13.4,8.5-20.3,12.4c-6.6,3.7-13.9,8.6-21.2,10.7c-9.6,2.7-16.1-9.1-20.8-15.6
					c-4.8-6.5-9.3-13.2-13.7-20c-8.7-13.6-16.8-27.7-24.8-41.7C143.2,174.5,142.6,174.8,142.8,175.2L142.8,175.2z"/>
			</g>
		</g>
		<g>
			<g>
				<path class="st0" d="M136.6,145.8c-0.9-1.1-2.8-4.2-0.1-4.8c0.5-0.1,0.3-0.8-0.2-0.7c-1.1,0.2-1.8,1.2-1.9,2.2
					c-0.1,1.4,0.7,2.6,1.6,3.6C136.3,146.5,136.9,146.2,136.6,145.8L136.6,145.8z"/>
			</g>
		</g>
		<g>
			<g>
				<path class="st0" d="M138.9,142.5c6.2,5.1,11.7,11,16.2,17.6c0.3,0.4,0.9,0,0.6-0.4c-4.6-6.7-10.1-12.6-16.4-17.7
					C139,141.6,138.5,142.2,138.9,142.5L138.9,142.5z"/>
			</g>
		</g>
		<g>
			<g>
				<path class="st0" d="M136,145.4c-9.4,0.2-18.7-0.6-28-2.4c-0.5-0.1-0.7,0.6-0.2,0.7c9.3,1.8,18.7,2.7,28.2,2.5
					C136.5,146.2,136.5,145.4,136,145.4L136,145.4z"/>
			</g>
		</g>
		<g>
			<g>
				<path class="st0" d="M109.6,145.7c4.3,3,9,5.1,14,6.5c0.5,0.1,0.7-0.6,0.2-0.7c-5-1.3-9.6-3.4-13.8-6.4
					C109.6,144.7,109.2,145.4,109.6,145.7L109.6,145.7z"/>
			</g>
		</g>
		<g>
			<g>
				<path class="st0" d="M111.7,151.1c3.9,3.2,8.4,5.2,13.4,6.1c0.5,0.1,0.7-0.6,0.2-0.7c-4.9-0.8-9.2-2.8-13.1-5.9
					C111.9,150.2,111.4,150.8,111.7,151.1L111.7,151.1z"/>
			</g>
		</g>
		<g>
			<g>
				<path class="st0" d="M112.9,155.6c3.8,2.8,8,4.4,12.6,5c0.5,0.1,0.5-0.7,0-0.8c-4.5-0.6-8.6-2.2-12.2-4.9
					C112.9,154.6,112.6,155.3,112.9,155.6L112.9,155.6z"/>
			</g>
		</g>
		<g>
			<g>
				<path class="st0" d="M115.5,159c2.8,2.7,6,4.6,9.8,5.5c5.4,1.3,13.7-2.1,16.1,4.7c0.2,0.5,0.9,0.3,0.7-0.2
					c-1.1-2.9-3.2-4.9-6.4-5.1c-3.3-0.2-6.2,0.7-9.5,0c-3.9-0.8-7.3-2.7-10.2-5.5C115.7,158.2,115.2,158.7,115.5,159L115.5,159z"/>
			</g>
		</g>
	</g>
	<g id="head">
		<path class="st0" d="M297.7,107.6c-1.7-0.1-4.1-0.2-6.9-0.7c-3.7-0.7-6.5-1.2-9.7-3c-2.1-1.2-5.3-3-7.1-6.9
			c-0.4-0.9-2.2-5-0.6-9.8c2.3-6.7,9.2-8.6,10.5-9c4.5-1.2,8.3,0,9.8,0.6c0.2-1.7,0.5-4.1,1.4-6.9c0.8-2.5,3.1-9.6,9.6-14.9
			c2.7-2.2,5.3-4.4,9-4.3c3.9,0.2,6.6,2.8,6.9,3c2.2,2.2,1.4,3.6,3.4,6.3c2.5,3.3,6.6,5,10.1,5.1c3.3,0.1,4.8-1.3,8.3-2.7
			c6.5-2.7,12.3-2.6,16-2.5c11.2,0.2,19.6,5.2,23.5,7.9c3.4,2.4,7.4,5.3,10.4,10.8c4.1,7.5,3.3,14.9,3,17.7
			c-1.1,9.5-6.2,15.7-9.6,19.9c-6.8,8.3-14.9,12.6-20.2,14.8c-1.6,0.6-5.5,2.1-10.8,2.9c-17.7,2.8-31.9-4.4-36-6.5
			c-4.4-2.3-10.7-5.7-16-12.8C300.2,113.1,298.7,109.9,297.7,107.6z"/>
		<path class="st5" d="M293.2,85.7c-3.2,0.8-5.3,3.7-5.1,6.9c0.2,3.4,3,6.2,6.5,6.4c-0.7-1.2-2-3.5-2.3-6.8
			C292.1,89.3,292.8,87,293.2,85.7z"/>
		<path class="st5" d="M289,106.5c-0.1,1.6,0,4,0.7,6.8c0.6,2.2,1.4,5.6,4.4,8.4c0.8,0.8,3.1,2.9,6.8,3.6c4.6,0.9,8.2-1,9.2-1.6
			c-1.8-1.4-4-3.2-6-5.7c-3.3-3.8-5.2-7.7-6.3-10.5C294.8,107.2,291.9,106.9,289,106.5z"/>
		<g>
			<g>
				<path class="st0" d="M289,107.7c-0.4,5.8,1.4,11.8,6.2,15.5c4.4,3.4,10.4,3.8,15.2,0.9c0.4-0.2,0-0.9-0.4-0.6
					c-4.7,2.8-10.7,2.3-14.8-1.3c-4.2-3.6-5.7-9-5.4-14.4C289.7,107.2,289,107.2,289,107.7L289,107.7z"/>
			</g>
		</g>
		<g>
			<g>
				<path class="st0" d="M297.7,107.2c-8.7-0.8-20.1-2.1-23.8-11.5c-4.5-11.6,8.2-19.6,18.4-16.5c0.5,0.1,0.7-0.6,0.2-0.7
					c-9.5-2.9-21,2.8-20.2,13.9c0.9,12.3,15.7,14.7,25.3,15.5C298.2,108,298.2,107.2,297.7,107.2L297.7,107.2z"/>
			</g>
		</g>
		<g>
			<g>
				<path class="st0" d="M294.5,74.4c-4.8,15.9,0.9,36.6,13.2,47.8c13.9,12.7,33.5,14.6,51.4,12.3c0.5-0.1,0.5-0.8,0-0.8
					c-17.2,2.2-35.9,0.6-49.7-11.1c-12.9-10.9-19-31.9-14.2-48.1C295.3,74.1,294.6,73.9,294.5,74.4L294.5,74.4z"/>
			</g>
		</g>
		<g>
			<g>
				<path class="st0" d="M295.1,74.9c3-7.4,8.8-18.8,17.1-21.5c8.5-2.7,10.2,9.9,16.6,13c5.9,2.8,11.3-1.1,16.8-2.8
					c8.1-2.4,16.8-1.9,24.7,0.7c8,2.6,16.3,7.6,20.9,14.8c4.4,6.8,5,15.5,3,23.2c-4.3,16.4-19.8,26-35,31.1
					c-0.5,0.2-0.3,0.9,0.2,0.7c12-4,23.8-10.4,30.9-21.3c6.5-9.9,8.2-23.8,1.6-34.1c-6.7-10.4-20.3-16.5-32.3-17.4
					c-7.3-0.5-13.5,1.2-20.2,3.8c-5.5,2.1-10.5,1.7-14.5-3.1c-2.1-2.5-2.7-6.2-5.1-8.2c-10.4-9-22.5,14.1-25.3,20.8
					C294.2,75.2,294.9,75.4,295.1,74.9L295.1,74.9z"/>
			</g>
		</g>
	</g>
</g>
</svg>
